<svg width="13" height="10" viewBox="0 0 13 10" fill="none" xmlns="http://www.w3.org/2000/svg">
<path d="M12.1246 0.124995L0.874641 0.124995C0.76074 0.125353 0.649094 0.156767 0.551719 0.215857C0.454344 0.274946 0.374928 0.359473 0.32202 0.46034C0.269111 0.561208 0.244713 0.674596 0.251451 0.788298C0.258191 0.901999 0.295813 1.01171 0.360266 1.10562L5.98527 9.23062C6.21839 9.5675 6.77964 9.5675 7.01339 9.23062L12.6384 1.10562C12.7035 1.01191 12.7417 0.90214 12.7488 0.788248C12.7559 0.674357 12.7317 0.560697 12.6787 0.459616C12.6257 0.358535 12.5461 0.273899 12.4484 0.214906C12.3507 0.155911 12.2388 0.124816 12.1246 0.124995ZM6.49964 7.77687L2.06714 1.375L10.9321 1.375L6.49964 7.77687Z" fill="white"/>
</svg>
